<?xml version="1.0" encoding="UTF-8" standalone="no"?>
<!-- Created with Inkscape (http://www.inkscape.org/) -->

<svg
   width="40"
   height="50"
   viewBox="0 0 10.583333 13.229167"
   version="1.1"
   id="svg5"
   inkscape:version="1.1.2 (0a00cf5339, 2022-02-04, custom)"
   sodipodi:docname="icon.png"
   xmlns:inkscape="http://www.inkscape.org/namespaces/inkscape"
   xmlns:sodipodi="http://sodipodi.sourceforge.net/DTD/sodipodi-0.dtd"
   xmlns="http://www.w3.org/2000/svg"
   xmlns:svg="http://www.w3.org/2000/svg">
  <sodipodi:namedview
     id="namedview7"
     pagecolor="#ffffff"
     bordercolor="#666666"
     borderopacity="1.0"
     inkscape:pageshadow="2"
     inkscape:pageopacity="0.0"
     inkscape:pagecheckerboard="true"
     inkscape:document-units="px"
     showgrid="false"
     inkscape:lockguides="false"
     units="px"
     width="512px"
     inkscape:zoom="17.597674"
     inkscape:cx="20.087883"
     inkscape:cy="19.292323"
     inkscape:window-width="2556"
     inkscape:window-height="1408"
     inkscape:window-x="0"
     inkscape:window-y="0"
     inkscape:window-maximized="1"
     inkscape:current-layer="layer1" />
  <defs
     id="defs2" />
  <g
     inkscape:label="Layer 1"
     inkscape:groupmode="layer"
     id="layer1">
    <g
       id="g2791"
       transform="translate(-22.755614,-10.782509)">
      <path
         id="rect848"
         style="fill:#c8c8c8;fill-opacity:1;stroke:#000000;stroke-width:0.264583;stroke-linecap:square;stroke-miterlimit:4;stroke-dasharray:none;stroke-opacity:1;paint-order:markers stroke fill"
         d="m 25.930622,12.766884 a 1.3229166,1.3229166 0 0 0 -0.188102,0.01344 1.3229166,1.3229166 0 0 0 -0.184485,0.04031 1.3229166,1.3229166 0 0 0 -0.176734,0.06563 1.3229166,1.3229166 0 0 0 -0.165881,0.09043 1.3229166,1.3229166 0 0 0 -0.150895,0.113171 1.3229166,1.3229166 0 0 0 -0.133842,0.133842 1.3229166,1.3229166 0 0 0 -0.113171,0.150895 1.3229166,1.3229166 0 0 0 -0.09043,0.165881 1.3229166,1.3229166 0 0 0 -0.06563,0.176734 1.3229166,1.3229166 0 0 0 -0.04031,0.184485 1.3229166,1.3229166 0 0 0 -0.01344,0.188102 v 7.9375 a 1.3229166,1.3229166 0 0 0 0.04496,0.342615 1.3229166,1.3229166 0 0 0 0.132292,0.318843 1.3229166,1.3229166 0 0 0 0.210323,0.273885 1.3229166,1.3229166 0 0 0 0.273885,0.210323 1.3229166,1.3229166 0 0 0 0.318844,0.132292 1.3229166,1.3229166 0 0 0 0.342614,0.04496 h 5.291667 a 1.3229166,1.3229166 0 0 0 0.121956,-0.0057 1.3229166,1.3229166 0 0 0 0.120923,-0.01705 1.3229166,1.3229166 0 0 0 0.119373,-0.02791 1.3229166,1.3229166 0 0 0 0.115755,-0.03876 1.3229166,1.3229166 0 0 0 0.111621,-0.04909 1.3229166,1.3229166 0 0 0 0.10697,-0.05943 1.3229166,1.3229166 0 0 0 0.100769,-0.06925 1.3229166,1.3229166 0 0 0 0.09405,-0.07803 1.3229166,1.3229166 0 0 0 0.0863,-0.0863 1.3229166,1.3229166 0 0 0 0.07803,-0.09405 1.3229166,1.3229166 0 0 0 0.06925,-0.100769 1.3229166,1.3229166 0 0 0 0.05943,-0.10697 1.3229166,1.3229166 0 0 0 0.04909,-0.111621 1.3229166,1.3229166 0 0 0 0.03876,-0.115755 1.3229166,1.3229166 0 0 0 0.0279,-0.119373 1.3229166,1.3229166 0 0 0 0.01705,-0.120923 1.3229166,1.3229166 0 0 0 0.0057,-0.121956 v -7.937481 a 1.3229166,1.3229166 0 0 0 -0.0057,-0.121956 1.3229166,1.3229166 0 0 0 -0.01705,-0.120923 1.3229166,1.3229166 0 0 0 -0.0279,-0.119373 1.3229166,1.3229166 0 0 0 -0.03876,-0.115755 1.3229166,1.3229166 0 0 0 -0.04909,-0.111621 1.3229166,1.3229166 0 0 0 -0.05943,-0.10697 1.3229166,1.3229166 0 0 0 -0.06925,-0.100769 1.3229166,1.3229166 0 0 0 -0.07803,-0.09405 1.3229166,1.3229166 0 0 0 -0.0863,-0.0863 1.3229166,1.3229166 0 0 0 -0.09405,-0.07803 1.3229166,1.3229166 0 0 0 -0.100769,-0.06925 1.3229166,1.3229166 0 0 0 -0.10697,-0.05943 1.3229166,1.3229166 0 0 0 -0.111621,-0.04909 1.3229166,1.3229166 0 0 0 -0.115756,-0.03876 1.3229166,1.3229166 0 0 0 -0.119372,-0.02791 1.3229166,1.3229166 0 0 0 -0.120923,-0.01705 1.3229166,1.3229166 0 0 0 -0.121957,-0.0057 z" />
      <path
         id="rect848-9"
         style="fill:#ffffff;fill-opacity:1;stroke:#000000;stroke-width:0.264583;stroke-linecap:square;stroke-miterlimit:4;stroke-dasharray:none;stroke-opacity:1;paint-order:markers stroke fill"
         d="m 24.872268,11.443966 a 1.3229166,1.3229166 0 0 0 -0.188102,0.01344 1.3229166,1.3229166 0 0 0 -0.184485,0.04031 1.3229166,1.3229166 0 0 0 -0.176734,0.06563 1.3229166,1.3229166 0 0 0 -0.165881,0.09043 1.3229166,1.3229166 0 0 0 -0.150895,0.113172 1.3229166,1.3229166 0 0 0 -0.133842,0.133842 1.3229166,1.3229166 0 0 0 -0.113172,0.150895 1.3229166,1.3229166 0 0 0 -0.09043,0.165881 1.3229166,1.3229166 0 0 0 -0.06563,0.176734 1.3229166,1.3229166 0 0 0 -0.04031,0.184485 1.3229166,1.3229166 0 0 0 -0.01344,0.188102 v 7.937498 a 1.3229166,1.3229166 0 0 0 0.04496,0.342615 1.3229166,1.3229166 0 0 0 0.132292,0.318844 1.3229166,1.3229166 0 0 0 0.210323,0.273885 1.3229166,1.3229166 0 0 0 0.273885,0.210323 1.3229166,1.3229166 0 0 0 0.318844,0.132292 1.3229166,1.3229166 0 0 0 0.342615,0.04496 h 5.291668 a 1.3229166,1.3229166 0 0 0 0.121956,-0.0057 1.3229166,1.3229166 0 0 0 0.120923,-0.01705 1.3229166,1.3229166 0 0 0 0.119373,-0.02791 1.3229166,1.3229166 0 0 0 0.115755,-0.03876 1.3229166,1.3229166 0 0 0 0.111621,-0.04909 1.3229166,1.3229166 0 0 0 0.10697,-0.05943 1.3229166,1.3229166 0 0 0 0.100769,-0.06925 1.3229166,1.3229166 0 0 0 0.09405,-0.07803 1.3229166,1.3229166 0 0 0 0.0863,-0.0863 1.3229166,1.3229166 0 0 0 0.07803,-0.09405 1.3229166,1.3229166 0 0 0 0.06925,-0.10077 1.3229166,1.3229166 0 0 0 0.05943,-0.10697 1.3229166,1.3229166 0 0 0 0.04909,-0.111621 1.3229166,1.3229166 0 0 0 0.03876,-0.115755 1.3229166,1.3229166 0 0 0 0.02791,-0.119372 1.3229166,1.3229166 0 0 0 0.01705,-0.120923 1.3229166,1.3229166 0 0 0 0.0057,-0.121959 V 12.76689 a 1.3229166,1.3229166 0 0 0 -0.0057,-0.121957 1.3229166,1.3229166 0 0 0 -0.01705,-0.120923 1.3229166,1.3229166 0 0 0 -0.02791,-0.119372 1.3229166,1.3229166 0 0 0 -0.03876,-0.115755 1.3229166,1.3229166 0 0 0 -0.04909,-0.111622 1.3229166,1.3229166 0 0 0 -0.05943,-0.10697 1.3229166,1.3229166 0 0 0 -0.06925,-0.100769 1.3229166,1.3229166 0 0 0 -0.07803,-0.09405 1.3229166,1.3229166 0 0 0 -0.0863,-0.0863 1.3229166,1.3229166 0 0 0 -0.09405,-0.07803 1.3229166,1.3229166 0 0 0 -0.100769,-0.06925 1.3229166,1.3229166 0 0 0 -0.10697,-0.05943 1.3229166,1.3229166 0 0 0 -0.111621,-0.04909 1.3229166,1.3229166 0 0 0 -0.115755,-0.03876 1.3229166,1.3229166 0 0 0 -0.119373,-0.0279 1.3229166,1.3229166 0 0 0 -0.120923,-0.01705 1.3229166,1.3229166 0 0 0 -0.121956,-0.0057 z" />
      <path
         style="fill:#b83b3b;stroke-width:0.0100348"
         d="m 27.277561,20.684566 c -0.05675,-0.05675 -0.135428,-0.264743 -0.174709,-0.461853 -0.05103,-0.256085 -0.05335,-0.349483 -0.02766,-1.118877 0.01324,-0.396981 0.02662,-1.96335 0.01731,-2.025243 l -0.0072,-0.04839 -0.127223,0.0062 c -0.381781,0.0187 -0.532588,0.02696 -0.76527,0.04193 -0.141201,0.0091 -0.268467,0.01357 -0.282814,0.01 -0.03611,-0.0091 -0.04089,-0.03385 -0.02144,-0.1113 0.01563,-0.06225 0.01563,-0.07385 -5.9e-5,-0.176056 -0.07331,-0.477465 -0.240133,-0.820141 -0.559738,-1.149731 -0.0583,-0.06012 -0.10585,-0.119002 -0.117487,-0.145504 -0.04239,-0.09649 -0.05541,-0.343351 -0.02197,-0.416979 0.03717,-0.08185 0.0996,-0.09728 0.153612,-0.03795 0.112828,0.123934 0.16226,0.155999 0.277536,0.180034 0.13361,0.02786 0.157623,0.02435 0.573195,-0.08391 0.212486,-0.05535 0.494714,-0.128517 0.627172,-0.162573 0.13246,-0.03406 0.243812,-0.06377 0.247451,-0.06601 0.0036,-0.0022 0.0048,-0.244322 0.0026,-0.537952 -0.0045,-0.599499 -0.0028,-0.585089 -0.07891,-0.688421 -0.04506,-0.06122 -0.121513,-0.119635 -0.169279,-0.129358 -0.06563,-0.01336 -0.107274,-0.09468 -0.107274,-0.209516 0,-0.121151 0.09488,-0.228291 0.381321,-0.430561 0.06898,-0.04872 0.143962,-0.103675 0.166606,-0.122121 0.02265,-0.01845 0.04653,-0.03354 0.05308,-0.03354 0.08139,0 0.579615,0.422537 0.754526,0.639889 0.0735,0.09134 0.08594,0.132001 0.06516,0.213105 -0.03255,0.127027 -0.144077,0.312589 -0.247895,0.412427 -0.100982,0.09711 -0.143052,0.203194 -0.188602,0.475611 -0.03042,0.181892 -0.03638,0.255885 -0.02062,0.255885 0.02121,0 0.763343,-0.190743 1.332894,-0.342579 0.0687,-0.01832 0.123985,-0.02785 0.139287,-0.024 0.0529,0.01328 0.366486,0.343209 0.618226,0.650453 0.126174,0.153985 0.127442,0.178095 0.01048,0.197979 -0.0857,0.01458 -0.167424,0.03949 -0.191883,0.05852 -0.02682,0.02085 -0.470207,0.899772 -0.55278,1.095762 -0.107676,0.255555 -0.163006,0.456198 -0.14795,0.536458 0.0088,0.04667 -0.01583,0.102523 -0.05099,0.115894 -0.01913,0.0072 -0.06751,0.0072 -0.158534,-9.8e-5 -0.213135,-0.01719 -0.585019,-0.03052 -0.85189,-0.03055 l -0.249255,-1.8e-5 0.007,1.156506 c 0.01138,1.875982 0.01138,1.877828 -0.0081,1.964307 -0.01101,0.04853 -0.04877,0.14118 -0.106458,0.260902 -0.04919,0.10211 -0.09733,0.207307 -0.107003,0.233783 -0.01507,0.0413 -0.03783,0.06726 -0.05898,0.06726 -0.0031,0 -0.0146,-0.0089 -0.02549,-0.01981 z m -0.437679,-4.076157 0.249959,-0.01216 -0.0066,-0.391021 c -0.0036,-0.215062 -0.0066,-0.482853 -0.0066,-0.595091 0,-0.154394 -0.003,-0.204068 -0.0123,-0.204068 -0.02871,0 -0.988197,0.25406 -1.00874,0.267102 -0.0343,0.02177 -0.02755,0.05263 0.02818,0.129085 0.109552,0.150264 0.194615,0.329217 0.274368,0.577182 0.06672,0.207433 0.07543,0.229025 0.09442,0.234032 0.03227,0.0086 0.138408,0.0071 0.387343,-0.0051 z m 1.509899,-0.05136 c 0.02832,-0.02321 0.111585,-0.215697 0.252645,-0.584055 0.121604,-0.317531 0.186882,-0.476741 0.303286,-0.73963 0.02527,-0.05705 0.01604,-0.08752 -0.03496,-0.115351 -0.02848,-0.01555 -0.05804,-0.01797 -0.213674,-0.01748 -0.12027,3.85e-4 -0.219187,0.0065 -0.296026,0.01838 -0.144279,0.02228 -0.491766,0.08966 -0.634699,0.123066 l -0.107869,0.02522 v 0.03346 c 0,0.01841 -0.0046,0.134304 -0.01023,0.257556 -0.01074,0.236329 -0.02946,1.003264 -0.02463,1.011821 0.0015,0.0027 0.171259,0.0036 0.377124,0.0021 0.272975,-0.0022 0.378286,-0.0062 0.389029,-0.01506 z"
         id="path2196" />
    </g>
  </g>
</svg>
